<mxfile host="app.diagrams.net" modified="2024-04-03T04:22:33.551Z" agent="Mozilla/5.0 (X11; Linux x86_64) AppleWebKit/537.36 (KHTML, like Gecko) Chrome/116.0.5845.1077 YaBrowser/23.9.1.1077 Yowser/2.5 Safari/537.36" etag="iBL0MZzoBig8vbpHsHhF" version="24.2.1" type="device">
  <diagram name="Страница — 1" id="F01TBp14QZlMbgak3b2M">
    <mxGraphModel dx="559" dy="806" grid="1" gridSize="10" guides="1" tooltips="1" connect="1" arrows="1" fold="1" page="1" pageScale="1" pageWidth="827" pageHeight="1169" math="0" shadow="0">
      <root>
        <mxCell id="0" />
        <mxCell id="1" parent="0" />
        <mxCell id="2EgjWEQwLR9G71ycxKzL-16" value="teacher&lt;div&gt;&lt;br&gt;&lt;/div&gt;" style="shape=umlActor;verticalLabelPosition=bottom;verticalAlign=top;html=1;outlineConnect=0;" parent="1" vertex="1">
          <mxGeometry x="940" y="600" width="30" height="60" as="geometry" />
        </mxCell>
        <mxCell id="2EgjWEQwLR9G71ycxKzL-17" value="admin" style="shape=umlActor;verticalLabelPosition=bottom;verticalAlign=top;html=1;outlineConnect=0;" parent="1" vertex="1">
          <mxGeometry x="1930" y="450" width="30" height="60" as="geometry" />
        </mxCell>
        <mxCell id="2EgjWEQwLR9G71ycxKzL-19" value="Log in" style="ellipse;whiteSpace=wrap;html=1;" parent="1" vertex="1">
          <mxGeometry x="1310" y="740" width="140" height="70" as="geometry" />
        </mxCell>
        <mxCell id="2EgjWEQwLR9G71ycxKzL-20" value="" style="endArrow=none;html=1;rounded=0;entryX=1;entryY=0.3333333333333333;entryDx=0;entryDy=0;entryPerimeter=0;exitX=0;exitY=0;exitDx=0;exitDy=0;" parent="1" source="2EgjWEQwLR9G71ycxKzL-19" target="2EgjWEQwLR9G71ycxKzL-16" edge="1">
          <mxGeometry width="50" height="50" relative="1" as="geometry">
            <mxPoint x="1190" y="815" as="sourcePoint" />
            <mxPoint x="1010" y="810" as="targetPoint" />
          </mxGeometry>
        </mxCell>
        <mxCell id="2EgjWEQwLR9G71ycxKzL-21" value="system" style="ellipse;whiteSpace=wrap;html=1;" parent="1" vertex="1">
          <mxGeometry x="1310" y="630" width="140" height="70" as="geometry" />
        </mxCell>
        <mxCell id="2EgjWEQwLR9G71ycxKzL-24" value="" style="endArrow=none;html=1;rounded=0;entryX=1;entryY=0;entryDx=0;entryDy=0;exitX=0;exitY=0.3333333333333333;exitDx=0;exitDy=0;exitPerimeter=0;" parent="1" source="2EgjWEQwLR9G71ycxKzL-17" target="2EgjWEQwLR9G71ycxKzL-19" edge="1">
          <mxGeometry width="50" height="50" relative="1" as="geometry">
            <mxPoint x="1730" y="824.66" as="sourcePoint" />
            <mxPoint x="1410" y="824.66" as="targetPoint" />
          </mxGeometry>
        </mxCell>
        <mxCell id="2EgjWEQwLR9G71ycxKzL-25" value="" style="endArrow=none;html=1;rounded=0;entryX=1;entryY=0.5;entryDx=0;entryDy=0;exitX=0;exitY=0.3333333333333333;exitDx=0;exitDy=0;exitPerimeter=0;" parent="1" source="2EgjWEQwLR9G71ycxKzL-17" target="2EgjWEQwLR9G71ycxKzL-21" edge="1">
          <mxGeometry width="50" height="50" relative="1" as="geometry">
            <mxPoint x="1780" y="670" as="sourcePoint" />
            <mxPoint x="1450" y="780" as="targetPoint" />
          </mxGeometry>
        </mxCell>
        <mxCell id="2EgjWEQwLR9G71ycxKzL-26" value="Edit account" style="ellipse;whiteSpace=wrap;html=1;" parent="1" vertex="1">
          <mxGeometry x="1310" y="830" width="140" height="70" as="geometry" />
        </mxCell>
        <mxCell id="2EgjWEQwLR9G71ycxKzL-27" value="" style="endArrow=none;html=1;rounded=0;entryX=1;entryY=0.3333333333333333;entryDx=0;entryDy=0;entryPerimeter=0;exitX=0;exitY=0;exitDx=0;exitDy=0;" parent="1" source="2EgjWEQwLR9G71ycxKzL-26" target="2EgjWEQwLR9G71ycxKzL-16" edge="1">
          <mxGeometry width="50" height="50" relative="1" as="geometry">
            <mxPoint x="1370" y="1015" as="sourcePoint" />
            <mxPoint x="1060" y="800" as="targetPoint" />
          </mxGeometry>
        </mxCell>
        <mxCell id="2EgjWEQwLR9G71ycxKzL-28" value="" style="endArrow=none;html=1;rounded=0;entryX=1;entryY=0;entryDx=0;entryDy=0;exitX=0;exitY=0.3333333333333333;exitDx=0;exitDy=0;exitPerimeter=0;" parent="1" source="2EgjWEQwLR9G71ycxKzL-17" target="2EgjWEQwLR9G71ycxKzL-26" edge="1">
          <mxGeometry width="50" height="50" relative="1" as="geometry">
            <mxPoint x="1817" y="1095" as="sourcePoint" />
            <mxPoint x="1507" y="880" as="targetPoint" />
          </mxGeometry>
        </mxCell>
        <mxCell id="2EgjWEQwLR9G71ycxKzL-30" value="View&amp;nbsp; details" style="ellipse;whiteSpace=wrap;html=1;" parent="1" vertex="1">
          <mxGeometry x="1310" y="440" width="140" height="70" as="geometry" />
        </mxCell>
        <mxCell id="2EgjWEQwLR9G71ycxKzL-32" value="" style="endArrow=none;html=1;rounded=0;entryX=1;entryY=0.5;entryDx=0;entryDy=0;exitX=0;exitY=0.3333333333333333;exitDx=0;exitDy=0;exitPerimeter=0;" parent="1" source="2EgjWEQwLR9G71ycxKzL-17" target="2EgjWEQwLR9G71ycxKzL-30" edge="1">
          <mxGeometry width="50" height="50" relative="1" as="geometry">
            <mxPoint x="1750" y="715" as="sourcePoint" />
            <mxPoint x="1480" y="580" as="targetPoint" />
          </mxGeometry>
        </mxCell>
        <mxCell id="2EgjWEQwLR9G71ycxKzL-33" value="" style="endArrow=none;html=1;rounded=0;entryX=1;entryY=0.3333333333333333;entryDx=0;entryDy=0;exitX=0;exitY=0;exitDx=0;exitDy=0;entryPerimeter=0;" parent="1" source="2EgjWEQwLR9G71ycxKzL-30" target="2EgjWEQwLR9G71ycxKzL-16" edge="1">
          <mxGeometry width="50" height="50" relative="1" as="geometry">
            <mxPoint x="1370" y="745" as="sourcePoint" />
            <mxPoint x="1100" y="510" as="targetPoint" />
          </mxGeometry>
        </mxCell>
        <mxCell id="2EgjWEQwLR9G71ycxKzL-34" value="Edit schedule" style="ellipse;whiteSpace=wrap;html=1;" parent="1" vertex="1">
          <mxGeometry x="1550" y="480" width="140" height="70" as="geometry" />
        </mxCell>
        <mxCell id="2EgjWEQwLR9G71ycxKzL-35" value="" style="endArrow=none;html=1;rounded=0;entryX=0.5;entryY=1;entryDx=0;entryDy=0;exitX=0;exitY=0.3333333333333333;exitDx=0;exitDy=0;exitPerimeter=0;" parent="1" source="2EgjWEQwLR9G71ycxKzL-17" target="2EgjWEQwLR9G71ycxKzL-34" edge="1">
          <mxGeometry width="50" height="50" relative="1" as="geometry">
            <mxPoint x="1730" y="810" as="sourcePoint" />
            <mxPoint x="1460" y="575" as="targetPoint" />
          </mxGeometry>
        </mxCell>
        <mxCell id="2EgjWEQwLR9G71ycxKzL-38" value="&amp;lt;&amp;lt;extends&amp;gt;&amp;gt;" style="endArrow=open;endSize=12;dashed=1;html=1;rounded=0;exitX=0.5;exitY=0;exitDx=0;exitDy=0;entryX=0.5;entryY=1;entryDx=0;entryDy=0;" parent="1" source="2EgjWEQwLR9G71ycxKzL-21" target="2EgjWEQwLR9G71ycxKzL-39" edge="1">
          <mxGeometry width="160" relative="1" as="geometry">
            <mxPoint x="1260" y="610" as="sourcePoint" />
            <mxPoint x="1420" y="610" as="targetPoint" />
          </mxGeometry>
        </mxCell>
        <mxCell id="2EgjWEQwLR9G71ycxKzL-39" value="Add searching criteria" style="ellipse;whiteSpace=wrap;html=1;" parent="1" vertex="1">
          <mxGeometry x="1310" y="520" width="140" height="70" as="geometry" />
        </mxCell>
        <mxCell id="2EgjWEQwLR9G71ycxKzL-40" value="" style="endArrow=none;html=1;rounded=0;entryX=0;entryY=0.5;entryDx=0;entryDy=0;exitX=1;exitY=0;exitDx=0;exitDy=0;" parent="1" source="2EgjWEQwLR9G71ycxKzL-21" target="2EgjWEQwLR9G71ycxKzL-34" edge="1">
          <mxGeometry width="50" height="50" relative="1" as="geometry">
            <mxPoint x="1560" y="770" as="sourcePoint" />
            <mxPoint x="1550" y="560" as="targetPoint" />
          </mxGeometry>
        </mxCell>
        <mxCell id="2EgjWEQwLR9G71ycxKzL-41" value="Update" style="edgeLabel;html=1;align=center;verticalAlign=middle;resizable=0;points=[];" parent="2EgjWEQwLR9G71ycxKzL-40" vertex="1" connectable="0">
          <mxGeometry x="-0.1062" y="-3" relative="1" as="geometry">
            <mxPoint as="offset" />
          </mxGeometry>
        </mxCell>
        <mxCell id="2EgjWEQwLR9G71ycxKzL-48" value="changes" style="ellipse;whiteSpace=wrap;html=1;" parent="1" vertex="1">
          <mxGeometry x="1140" y="350" width="140" height="70" as="geometry" />
        </mxCell>
        <mxCell id="2EgjWEQwLR9G71ycxKzL-50" value="View sche&lt;span style=&quot;background-color: initial;&quot;&gt;dule&lt;/span&gt;" style="ellipse;whiteSpace=wrap;html=1;" parent="1" vertex="1">
          <mxGeometry x="1110" y="860" width="140" height="70" as="geometry" />
        </mxCell>
        <mxCell id="2EgjWEQwLR9G71ycxKzL-51" value="" style="endArrow=none;html=1;rounded=0;entryX=1;entryY=0.3333333333333333;entryDx=0;entryDy=0;exitX=0.5;exitY=0;exitDx=0;exitDy=0;entryPerimeter=0;" parent="1" source="2EgjWEQwLR9G71ycxKzL-50" target="2EgjWEQwLR9G71ycxKzL-16" edge="1">
          <mxGeometry width="50" height="50" relative="1" as="geometry">
            <mxPoint x="1120" y="615" as="sourcePoint" />
            <mxPoint x="980" y="610" as="targetPoint" />
          </mxGeometry>
        </mxCell>
        <mxCell id="2EgjWEQwLR9G71ycxKzL-52" value="changee smth" style="ellipse;whiteSpace=wrap;html=1;" parent="1" vertex="1">
          <mxGeometry x="1090" y="560" width="140" height="70" as="geometry" />
        </mxCell>
        <mxCell id="2EgjWEQwLR9G71ycxKzL-53" value="" style="endArrow=none;html=1;rounded=0;entryX=1;entryY=0.3333333333333333;entryDx=0;entryDy=0;exitX=0;exitY=0.5;exitDx=0;exitDy=0;entryPerimeter=0;" parent="1" source="2EgjWEQwLR9G71ycxKzL-52" target="2EgjWEQwLR9G71ycxKzL-16" edge="1">
          <mxGeometry width="50" height="50" relative="1" as="geometry">
            <mxPoint x="1320" y="485" as="sourcePoint" />
            <mxPoint x="980" y="630" as="targetPoint" />
          </mxGeometry>
        </mxCell>
        <mxCell id="2EgjWEQwLR9G71ycxKzL-54" value="Communicate" style="ellipse;whiteSpace=wrap;html=1;" parent="1" vertex="1">
          <mxGeometry x="1330" y="330" width="140" height="70" as="geometry" />
        </mxCell>
        <mxCell id="2EgjWEQwLR9G71ycxKzL-55" value="&amp;lt;&amp;lt;extends&amp;gt;&amp;gt;" style="endArrow=open;endSize=12;dashed=1;html=1;rounded=0;exitX=0.5;exitY=0;exitDx=0;exitDy=0;entryX=0;entryY=1;entryDx=0;entryDy=0;" parent="1" source="2EgjWEQwLR9G71ycxKzL-52" target="2EgjWEQwLR9G71ycxKzL-54" edge="1">
          <mxGeometry width="160" relative="1" as="geometry">
            <mxPoint x="1291" y="520" as="sourcePoint" />
            <mxPoint x="1230" y="470" as="targetPoint" />
          </mxGeometry>
        </mxCell>
        <mxCell id="2EgjWEQwLR9G71ycxKzL-56" value="" style="endArrow=none;html=1;rounded=0;entryX=1;entryY=0.5;entryDx=0;entryDy=0;exitX=0;exitY=0.3333333333333333;exitDx=0;exitDy=0;exitPerimeter=0;" parent="1" source="2EgjWEQwLR9G71ycxKzL-17" target="2EgjWEQwLR9G71ycxKzL-54" edge="1">
          <mxGeometry width="50" height="50" relative="1" as="geometry">
            <mxPoint x="1740" y="810" as="sourcePoint" />
            <mxPoint x="1670" y="600" as="targetPoint" />
          </mxGeometry>
        </mxCell>
        <mxCell id="2EgjWEQwLR9G71ycxKzL-58" value="&amp;lt;&amp;lt;includes&amp;gt;&amp;gt;" style="endArrow=open;endSize=12;dashed=1;html=1;rounded=0;exitX=0.5;exitY=0;exitDx=0;exitDy=0;" parent="1" source="2EgjWEQwLR9G71ycxKzL-52" target="2EgjWEQwLR9G71ycxKzL-21" edge="1">
          <mxGeometry width="160" relative="1" as="geometry">
            <mxPoint x="1170" y="570" as="sourcePoint" />
            <mxPoint x="910.5025253169417" y="469.74873734152925" as="targetPoint" />
          </mxGeometry>
        </mxCell>
        <mxCell id="2EgjWEQwLR9G71ycxKzL-61" value="" style="endArrow=none;html=1;rounded=0;entryX=0.7;entryY=1;entryDx=0;entryDy=0;entryPerimeter=0;" parent="1" source="2EgjWEQwLR9G71ycxKzL-21" target="2EgjWEQwLR9G71ycxKzL-48" edge="1">
          <mxGeometry width="50" height="50" relative="1" as="geometry">
            <mxPoint x="1330" y="550" as="sourcePoint" />
            <mxPoint x="1380" y="500" as="targetPoint" />
          </mxGeometry>
        </mxCell>
        <mxCell id="2EgjWEQwLR9G71ycxKzL-63" value="" style="endArrow=classic;html=1;rounded=0;exitX=0.021;exitY=0.629;exitDx=0;exitDy=0;exitPerimeter=0;" parent="1" source="2EgjWEQwLR9G71ycxKzL-39" target="2EgjWEQwLR9G71ycxKzL-52" edge="1">
          <mxGeometry width="50" height="50" relative="1" as="geometry">
            <mxPoint x="1330" y="670" as="sourcePoint" />
            <mxPoint x="1380" y="620" as="targetPoint" />
          </mxGeometry>
        </mxCell>
      </root>
    </mxGraphModel>
  </diagram>
</mxfile>
